<?xml version="1.0" standalone="no"?>
<!DOCTYPE svg PUBLIC "-//W3C//DTD SVG 20010904//EN"
 "http://www.w3.org/TR/2001/REC-SVG-20010904/DTD/svg10.dtd">
<svg version="1.0" xmlns="http://www.w3.org/2000/svg"
 width="269.000000pt" height="267.000000pt" viewBox="0 0 269.000000 267.000000"
 preserveAspectRatio="xMidYMid meet">

<g transform="translate(0.000000,267.000000) scale(0.100000,-0.100000)"
fill="#000000" stroke="none">
<path d="M420 2423 c0 -60 4 -115 10 -123 5 -9 5 -19 -1 -26 -22 -27 -11 -604
31 -1569 5 -121 12 -297 16 -392 4 -94 10 -176 13 -181 3 -6 109 -12 246 -15
l240 -5 -177 11 c-97 7 -179 14 -181 17 -10 10 -39 845 -56 1620 -4 195 -7
356 -6 357 2 4 1567 5 1570 1 8 -8 -36 -1626 -51 -1880 l-7 -107 -46 -4 c-25
-2 2 -4 61 -5 128 -2 114 -25 123 203 3 88 10 257 15 375 41 892 54 1546 31
1574 -8 10 -9 16 -1 21 6 4 10 52 10 121 l0 114 -920 0 -920 0 0 -107z"/>
<path d="M580 1963 c0 -76 3 -155 6 -175 l7 -38 752 0 753 0 4 168 c2 92 3
170 1 174 -2 4 -345 7 -763 8 l-760 0 0 -137z m435 7 c4 -17 14 -37 22 -46 10
-10 12 -19 6 -25 -7 -7 -17 8 -31 42 -24 56 -27 73 -13 64 5 -3 12 -19 16 -35z
m201 -25 c2 -30 -1 -57 -7 -60 -5 -4 -9 21 -9 61 0 79 12 79 16 -1z m-149 20
c-6 -19 -12 -33 -14 -32 -6 7 9 67 17 67 5 0 3 -16 -3 -35z m82 -20 c24 -64
24 -65 11 -65 -5 0 -10 4 -10 9 0 5 -8 26 -17 47 -20 48 -24 64 -13 64 5 0 18
-25 29 -55z m141 -5 c0 -63 -15 -83 -21 -27 -5 44 0 87 12 87 5 0 9 -27 9 -60z
m50 11 c0 -55 10 -67 39 -52 25 14 32 44 15 75 -7 14 -8 26 -3 26 16 0 32 -47
25 -75 -7 -26 -39 -45 -77 -45 -17 0 -19 7 -19 60 0 33 4 60 10 60 6 0 10 -22
10 -49z m159 -6 c24 -63 24 -65 13 -65 -5 0 -15 18 -22 40 -7 22 -17 40 -21
40 -4 0 -7 9 -6 20 2 34 15 22 36 -35z m91 8 l16 -37 19 44 18 45 8 -40 c11
-57 11 -87 -1 -80 -5 3 -10 21 -10 38 l-1 32 -18 -34 -18 -33 -21 36 c-12 21
-22 47 -22 58 0 27 9 18 30 -29z m-475 -13 c3 -5 1 -10 -4 -10 -6 0 -11 5 -11
10 0 6 2 10 4 10 3 0 8 -4 11 -10z m337 -30 c-9 -16 -18 -27 -19 -26 -7 7 20
65 27 61 5 -3 1 -19 -8 -35z m105 -17 c-3 -10 -5 -2 -5 17 0 19 2 27 5 18 2
-10 2 -26 0 -35z m-461 1 c-4 -9 -9 -15 -11 -12 -3 3 -3 13 1 22 4 9 9 15 11
12 3 -3 3 -13 -1 -22z"/>
<path d="M762 1608 c-15 -15 -15 -61 0 -76 18 -18 75 -15 82 4 18 47 -1 84
-44 84 -14 0 -31 -5 -38 -12z m68 -13 c7 -8 10 -25 6 -40 -8 -31 -50 -35 -66
-5 -23 42 30 81 60 45z"/>
<path d="M877 1613 c-3 -5 -1 -28 3 -53 4 -25 8 -37 9 -28 2 29 20 30 46 4 16
-16 25 -20 25 -11 0 8 -5 17 -10 20 -8 5 -7 11 0 20 7 8 9 23 5 35 -5 15 -15
20 -40 20 -19 0 -36 -3 -38 -7z m61 -25 c3 -13 -3 -18 -22 -18 -20 0 -26 5
-26 21 0 15 5 20 22 17 13 -2 24 -11 26 -20z"/>
<path d="M990 1570 c0 -27 5 -50 10 -50 6 0 10 23 10 50 0 28 -4 50 -10 50 -5
0 -10 -22 -10 -50z"/>
<path d="M1039 1596 c-14 -30 -5 -72 17 -80 30 -11 64 4 64 30 0 16 -6 24 -17
24 -13 0 -14 -3 -5 -12 19 -19 14 -28 -18 -28 -16 0 -30 4 -30 9 0 5 -3 16 -6
24 -8 22 25 49 52 43 14 -4 24 -2 24 4 0 5 -16 10 -35 10 -28 0 -38 -5 -46
-24z"/>
<path d="M1150 1565 c0 -35 4 -54 10 -50 6 3 10 26 10 50 0 24 -4 47 -10 50
-6 4 -10 -15 -10 -50z"/>
<path d="M1190 1570 c0 -58 17 -68 22 -12 l3 37 29 -43 c16 -23 31 -40 34 -37
7 7 6 94 -2 102 -3 3 -6 -11 -6 -33 l-1 -39 -30 38 c-17 20 -35 37 -40 37 -5
0 -9 -22 -9 -50z"/>
<path d="M1330 1574 c-23 -52 -26 -77 -6 -51 17 22 52 22 65 0 5 -10 12 -15
15 -12 8 8 -34 109 -46 109 -5 0 -18 -21 -28 -46z m50 -16 c0 -4 -9 -8 -20 -8
-21 0 -24 8 -13 36 6 16 7 16 20 -2 7 -10 13 -21 13 -26z"/>
<path d="M1432 1568 l3 -53 38 -3 c20 -2 37 1 37 7 0 5 -13 8 -30 6 -30 -4
-30 -3 -30 46 0 28 -5 49 -11 49 -6 0 -9 -21 -7 -52z"/>
<path d="M1573 1594 c-15 -24 -15 -29 -2 -53 16 -29 55 -40 73 -20 8 9 7 10
-7 6 -27 -10 -57 10 -57 37 0 30 23 49 50 41 11 -4 20 -2 20 4 0 6 -13 11 -30
11 -21 0 -35 -8 -47 -26z"/>
<path d="M1682 1565 c1 -33 3 -47 5 -32 4 25 8 28 36 25 24 -2 31 -7 29 -20
-2 -10 2 -18 8 -18 5 0 10 22 10 52 0 28 -3 48 -7 44 -4 -4 -8 -15 -8 -24 0
-12 -9 -17 -30 -17 -23 0 -31 6 -36 25 -5 16 -7 4 -7 -35z"/>
<path d="M1812 1568 c-12 -28 -20 -54 -17 -56 2 -3 7 3 11 12 8 21 53 21 70
-1 7 -10 14 -13 14 -6 0 19 -39 103 -48 103 -4 0 -18 -23 -30 -52z m48 -5 c0
-7 -9 -13 -20 -13 -23 0 -24 4 -9 32 9 17 13 18 20 7 5 -8 9 -20 9 -26z"/>
<path d="M1917 1613 c-11 -10 -8 -93 3 -93 6 0 10 23 10 50 0 51 -1 55 -13 43z"/>
<path d="M987 1449 c7 -7 15 -10 18 -7 3 3 -2 9 -12 12 -14 6 -15 5 -6 -5z"/>
<path d="M1600 1435 c0 -8 2 -15 4 -15 2 0 6 7 10 15 3 8 1 15 -4 15 -6 0 -10
-7 -10 -15z"/>
<path d="M1405 1430 c3 -5 8 -10 11 -10 2 0 4 5 4 10 0 6 -5 10 -11 10 -5 0
-7 -4 -4 -10z"/>
<path d="M1490 1269 c-19 -5 -46 -11 -59 -13 -13 -2 -28 -11 -33 -20 -5 -9
-14 -16 -19 -16 -18 0 -68 -56 -74 -83 -4 -14 -15 -33 -26 -43 -10 -9 -16 -21
-13 -26 3 -5 -1 -19 -8 -31 -18 -28 -13 -142 7 -171 8 -11 15 -30 15 -41 0
-20 49 -85 63 -85 4 0 16 -8 26 -17 48 -44 59 -48 179 -57 57 -5 68 -3 105 22
23 14 51 31 62 37 11 6 24 20 30 33 5 12 18 25 27 28 10 3 18 12 18 20 0 8 7
29 16 45 29 56 40 164 23 225 -16 58 -145 184 -190 184 -10 0 -20 4 -23 8 -7
12 -83 12 -126 1z m-67 -54 c-3 -9 -8 -14 -10 -11 -3 3 -2 9 2 15 9 16 15 13
8 -4z m70 8 c-7 -2 -13 -14 -13 -26 -1 -25 -48 -98 -67 -105 -17 -5 -17 30 1
72 15 36 51 67 76 65 10 0 11 -2 3 -6z m92 -3 c3 -5 1 -10 -4 -10 -6 0 -11 5
-11 10 0 6 2 10 4 10 3 0 8 -4 11 -10z m15 -86 c0 -8 -4 -12 -10 -9 -5 3 -10
13 -10 21 0 8 5 12 10 9 6 -3 10 -13 10 -21z m123 -4 c3 -11 1 -23 -4 -26 -5
-3 -9 1 -9 10 0 8 -3 22 -7 32 -4 11 -3 15 4 11 6 -4 13 -16 16 -27z m-149
-29 c9 -13 -15 -72 -25 -65 -6 4 -6 11 1 19 8 9 8 15 0 20 -15 9 -12 35 4 35
8 0 17 -4 20 -9z m99 -12 c-8 -44 -29 -109 -36 -109 -4 0 -12 11 -17 24 -7 19
-4 34 13 65 21 39 45 50 40 20z m-323 -9 c11 -7 12 -12 3 -21 -13 -13 -33 -4
-33 17 0 16 9 18 30 4z m130 -20 c0 -5 -5 -10 -11 -10 -5 0 -7 5 -4 10 3 6 8
10 11 10 2 0 4 -4 4 -10z m75 -60 c18 -36 19 -55 2 -72 -7 -7 -17 -22 -21 -33
-7 -20 -8 -20 -22 -1 -8 12 -10 23 -4 31 5 6 5 16 0 25 -14 22 -12 68 3 73 22
10 26 7 42 -23z m-180 -88 c0 -67 -7 -81 -30 -62 -18 15 -21 100 -3 118 23 23
33 5 33 -56z m415 18 c-16 -29 -43 -60 -52 -60 -5 0 -7 18 -6 39 2 22 5 38 7
35 2 -2 13 3 24 11 27 19 43 4 27 -25z m-311 -26 c3 -16 1 -17 -13 -5 -19 16
-21 34 -3 29 6 -3 14 -13 16 -24z m51 -64 c0 -5 -5 -10 -11 -10 -5 0 -7 5 -4
10 3 6 8 10 11 10 2 0 4 -4 4 -10z m158 -5 c12 -12 -31 -35 -67 -36 -20 0 -30
-3 -23 -6 16 -6 15 -43 -2 -43 -20 0 -45 32 -28 37 16 6 15 23 -2 23 -16 0
-28 24 -18 35 8 9 130 0 140 -10z m-28 -80 c20 -24 6 -28 -15 -5 -10 11 -13
20 -8 20 6 0 16 -7 23 -15z m-173 -37 c-3 -8 -6 -5 -6 6 -1 11 2 17 5 13 3 -3
4 -12 1 -19z m90 -12 c-5 -16 -52 -30 -73 -22 -18 7 -17 8 5 20 30 16 73 18
68 2z"/>
<path d="M886 1056 c-63 -17 -128 -80 -132 -128 -12 -135 7 -223 59 -262 75
-57 151 -70 222 -37 77 36 114 101 115 202 0 50 -29 139 -54 167 -48 55 -133
78 -210 58z"/>
<path d="M1371 504 c0 -11 3 -14 6 -6 3 7 2 16 -1 19 -3 4 -6 -2 -5 -13z"/>
<path d="M1040 305 c0 -8 5 -15 11 -15 5 0 7 5 4 10 -3 6 -1 10 5 10 7 0 9 -8
5 -20 -5 -14 -2 -20 9 -20 9 0 16 4 16 9 0 5 3 16 6 25 5 13 -1 16 -25 16 -21
0 -31 -5 -31 -15z"/>
<path d="M630 196 c0 -34 0 -35 53 -40 113 -13 473 -26 711 -26 220 0 635 15
643 24 1 1 5 16 9 32 l6 29 -604 0 c-332 0 -651 4 -710 8 l-108 8 0 -35z"/>
<path d="M1818 113 c23 -2 59 -2 80 0 20 2 1 4 -43 4 -44 0 -61 -2 -37 -4z"/>
<path d="M1393 103 c59 -2 154 -2 210 0 56 1 8 3 -108 3 -115 0 -161 -2 -102
-3z"/>
</g>
</svg>
